<svg width="402" height="402" viewBox="0 0 402 402" fill="none" xmlns="http://www.w3.org/2000/svg">
<circle cx="201" cy="201" r="200" fill="#F8F9FA"/>
<circle cx="201" cy="201" r="200.5" stroke="#1B365D" stroke-opacity="0.2"/>
<path d="M148 66C160.703 66 171 76.2975 171 89V127.02C171 131.864 169.47 136.585 166.629 140.509L162.465 146.26L162.342 146.43L162.196 146.581L149.196 160.081L149.136 160.144L149.071 160.203L128.994 178.765C125.514 181.982 123.535 186.507 123.535 191.247V220.217C123.535 220.599 123.499 220.981 123.425 221.356C122.054 228.333 111.796 227.394 111.715 220.284L110.192 85.9707C110.068 74.9781 118.944 66.0001 129.938 66H148Z" fill="#1B365D" stroke="#F8F9FA" stroke-width="6"/>
<path d="M244.98 243.683C247.92 242.898 251.363 243.214 254.017 245.81L279.923 271.143C288.216 279.254 289.172 292.27 282.153 301.505L271.457 315.578C263.861 325.571 249.656 327.629 239.537 320.203L213.261 300.918L213.259 300.918L197.066 289.021C191.094 284.633 188.349 277.088 190.096 269.894C192.052 258.853 203.478 253.85 213.372 254.911C214.276 255.008 215.069 255.037 215.736 255.001C217.308 254.916 218.72 254.921 219.996 254.938C221.3 254.956 222.391 254.984 223.482 254.957C225.561 254.904 227.466 254.65 229.773 253.716C233.571 252.178 235.406 251.282 237.565 248.611C239.421 246.314 242.1 244.453 244.98 243.683Z" fill="#1B365D" stroke="#F8F9FA" stroke-width="6"/>
<path d="M149.705 170.252C150.563 169.394 151.854 169.137 152.975 169.601C154.095 170.066 154.826 171.16 154.826 172.373V197.998C154.826 201.733 156.31 205.315 158.951 207.956C161.592 210.597 165.174 212.081 168.909 212.081H185.993C189.728 212.081 193.31 210.597 195.951 207.956C198.592 205.315 200.076 201.733 200.076 197.998V189.456C200.076 187.799 201.419 186.456 203.076 186.456H262.868C264.525 186.456 265.868 187.799 265.868 189.456V197.998C265.868 201.059 264.652 203.994 262.487 206.159C260.323 208.323 257.387 209.54 254.326 209.54H248.784V215.081C248.784 218.142 247.569 221.077 245.404 223.242C243.24 225.406 240.304 226.623 237.243 226.623H231.701V232.165C231.701 235.226 230.485 238.162 228.32 240.326C226.156 242.49 223.22 243.706 220.159 243.706H188.292L166.852 323.28C166.716 323.783 166.452 324.243 166.085 324.613C165.012 325.695 163.735 326.554 162.329 327.139C160.923 327.725 159.414 328.027 157.891 328.027C156.367 328.027 154.859 327.725 153.452 327.139C152.227 326.629 151.1 325.91 150.12 325.018L116.412 309.605C116.084 309.455 115.786 309.248 115.532 308.992C113.383 306.829 112.176 303.904 112.176 300.855C112.176 298.109 113.157 295.466 114.922 293.387L131.743 223.264V189.456C131.743 188.66 132.059 187.897 132.621 187.335L149.705 170.252ZM256.804 73.9734C258.327 73.9734 259.836 74.2752 261.242 74.8611C262.646 75.4462 263.921 76.3031 264.993 77.3826L287.031 99.5056L287.033 99.5076C289.183 101.67 290.39 104.596 290.39 107.645C290.39 110.528 289.309 113.297 287.375 115.419L256.987 173.759C256.471 174.75 255.445 175.373 254.326 175.373H188.993V189.456C188.993 192.517 187.777 195.452 185.612 197.617C183.448 199.781 180.512 200.998 177.451 200.998C174.39 200.998 171.455 199.781 169.29 197.617C167.126 195.452 165.909 192.517 165.909 189.456V163.831C165.909 158.505 168.026 153.397 171.792 149.631C175.558 145.864 180.667 143.748 185.993 143.748H209.892L248.146 77.9919L248.247 77.8298C248.353 77.6714 248.474 77.5231 248.608 77.3875C249.681 76.3058 250.958 75.447 252.364 74.8611C253.771 74.2751 255.28 73.9734 256.804 73.9734Z" fill="#3B82F6" stroke="#F8F9FA" stroke-width="6" stroke-linejoin="round"/>
</svg>
